# xmcd
#
# Track frame offsets:
#	150
#	24097
#	38645
#	65570
#	84612
#	103300
#	113367
#	124867
#	137115
#	146667
#	162802
#	177725
#	197317
#	215457
#	232602
#	244755
#	268107
#
# Disc length: 3878 seconds
#
# Revision: 1
# Processed by: cddbd v1.4b42PL1 Copyright (c) Steve Scherf et al.
# Submitted via: audiograbber 1.80
#
DISCID=e60f2411
DTITLE=Bruce Woodley - I Am Australian
DYEAR=1900
DGENRE=
TTITLE0=Roaring Days
TTITLE1=With my Swag on my Shoulder
TTITLE2=The Man from Snowy River
TTITLE3=Last Night I had a Dream
TTITLE4=The Bush Girl
TTITLE5=Limejuice Tub
TTITLE6=Clancy of the Overflow
TTITLE7=Gold in the Ground
TTITLE8=A Thousand Miles Away
TTITLE9=Break of Day
TTITLE10=The Overlander
TTITLE11=Billy of Tea
TTITLE12=The Lights of Cobb and Co
TTITLE13=Can We Learn to get Along
TTITLE14=Flash Jack from Gundagai
TTITLE15=Leaving the Land
TTITLE16=I am Australian
EXTD=
EXTT0=
EXTT1=
EXTT2=
EXTT3=
EXTT4=
EXTT5=
EXTT6=
EXTT7=
EXTT8=
EXTT9=
EXTT10=
EXTT11=
EXTT12=
EXTT13=
EXTT14=
EXTT15=
EXTT16=
PLAYORDER=
